:SAMPLES-PER-SECOND 30
:FULLY-SPECIFIED
:DEGREES
513
root  68.9825 40.2759 -5.49832 -157.612 -83.3114 163.626
RightUpLeg  -12.074 -10.9573 -9.20089
RightLeg  2.86456 -2.61809 4.42978
RightFoot  6.18047 -0.224294 1.7299
RightToes  -1.16417e-010 0 -3.6325e-017
Spine  19.2944 -1.08719 6.88876
Spine1  8.02845 0.827383 -3.53246
HEad  -34.3555 6.95662 -5.95673
LeftShoulder1  11.964 -17.5803 -49.538
LeftArm  14.8767 -3.64662 -31.2005
LeftForeArm  16.0907 -58.4623 -17.1403
LeftHand  -0.244104 0.0205437 5.32207
RightShoulder  7.61106 13.9481 37.5662
RightArm  6.82642 -13.645 39.0531
RightForeArm  -25.0324 66.8629 30.7724
RightHand  -14.2652 26.4693 -48.9699
LeftUpLeg  -8.69721 8.26199 6.51368
LeftLeg  2.48429 25.5783 -4.75926
LeftFoot  3.977 0.281486 -2.27264
LeftToes  -2.09216e-011 1.96776e-011 -5.83545e-012
514
root  69.073 40.2753 -5.69201 -157.902 -83.5391 164.109
RightUpLeg  -12.398 -10.7536 -8.79637
RightLeg  2.98726 -3.02414 4.49062
RightFoot  6.09406 -0.193785 1.53562
RightToes  -1.16417e-010 0 -3.6325e-017
Spine  19.7055 -1.14795 7.63212
Spine1  7.9173 1.0516 -4.0795
HEad  -34.2793 6.49729 -5.98456
LeftShoulder1  11.9463 -17.5529 -49.5294
LeftArm  13.583 -3.04625 -31.2175
LeftForeArm  20.0254 -60.4969 -18.3416
LeftHand  -0.244104 0.0205437 5.32207
RightShoulder  7.5931 13.9148 37.5474
RightArm  5.66288 -14.098 39.9043
RightForeArm  -20.2 68.3808 33.2097
RightHand  -14.3132 26.5524 -48.987
LeftUpLeg  -8.70563 8.42546 6.93218
LeftLeg  1.75305 25.1899 -5.09625
LeftFoot  4.44399 0.327308 -2.55608
LeftToes  -2.09216e-011 1.96776e-011 -5.83545e-012
515
root  69.1188 40.2727 -5.87306 -157.876 -83.9182 163.758
RightUpLeg  -12.3409 -10.649 -8.53523
RightLeg  3.68232 -3.43758 4.45285
RightFoot  5.69245 -0.135837 1.16656
RightToes  -1.16417e-010 0 -3.6325e-017
Spine  19.7205 -1.12598 8.18972
Spine1  8.0315 1.2787 -4.4693
HEad  -32.8107 6.04246 -5.81343
LeftShoulder1  11.9146 -17.5627 -49.3747
LeftArm  12.4253 -2.72335 -31.3903
LeftForeArm  23.6547 -62.3379 -19.5786
LeftHand  -0.244104 0.0205437 5.32207
RightShoulder  7.54662 13.7703 37.6409
RightArm  5.04805 -13.5696 40.4764
RightForeArm  -14.2924 69.6064 35.3062
RightHand  -13.3582 25.5643 -47.399
LeftUpLeg  -8.2326 8.56476 7.29824
LeftLeg  1.25841 24.6304 -5.26932
LeftFoot  4.78416 0.366708 -2.79432
LeftToes  -2.09216e-011 1.96776e-011 -5.83545e-012
516
root  69.0953 40.27 -5.99974 -153.542 -84.6708 158.899
RightUpLeg  -11.993 -11.0463 -8.76857
RightLeg  4.67698 -3.87901 4.52859
RightFoot  5.05736 -0.0665371 0.70124
RightToes  -1.16417e-010 0 -3.6325e-017
Spine  18.962 -1.21618 8.3911
Spine1  8.32252 1.15527 -4.45195
HEad  -30.7002 5.58695 -5.62394
LeftShoulder1  11.8184 -17.4536 -49.231
LeftArm  11.4822 -2.80912 -31.5369
LeftForeArm  25.4735 -63.6095 -20.6378
LeftHand  -0.244104 0.0205437 5.32207
RightShoulder  7.52071 13.6853 37.7043
RightArm  4.98501 -12.1433 40.6579
RightForeArm  -10.2385 70.112 36.0895
RightHand  -12.6796 24.8467 -46.2262
LeftUpLeg  -7.63497 8.25867 7.2063
LeftLeg  0.839066 24.0767 -5.21516
LeftFoot  5.06864 0.388368 -2.9073
LeftToes  -2.09216e-011 1.96776e-011 -5.83545e-012
517
root  69.002 40.262 -6.06634 -142.794 -85.7494 147.525
RightUpLeg  -11.328 -11.9622 -9.50717
RightLeg  5.78837 -4.31599 4.81921
RightFoot  4.17336 -0.0277249 0.413947
RightToes  -1.16417e-010 0 -3.6325e-017
Spine  17.5094 -1.48381 8.31408
Spine1  8.68983 0.647202 -4.08113
HEad  -28.7316 5.48601 -5.52302
LeftShoulder1  11.6319 -17.1976 -49.0538
LeftArm  10.2742 -3.27746 -31.686
LeftForeArm  26.5102 -64.876 -21.9251
LeftHand  -0.244104 0.0205437 5.32207
RightShoulder  7.55492 13.7924 37.6334
RightArm  5.1359 -10.1549 40.4663
RightForeArm  -7.68911 70.4916 36.7544
RightHand  -13.0819 25.2944 -46.8922
LeftUpLeg  -7.07194 7.60561 6.73129
LeftLeg  0.664236 23.3739 -4.91693
LeftFoot  5.17089 0.407028 -3.02183
LeftToes  -2.09216e-011 1.96776e-011 -5.83545e-012
518
root  68.923 40.2417 -6.15857 -134.426 -86.6111 137.982
RightUpLeg  -10.0927 -12.3812 -9.84732
RightLeg  6.8233 -4.78704 4.91833
RightFoot  3.19595 -0.0299585 0.407052
RightToes  -1.16417e-010 0 -3.6325e-017
Spine  16.5343 -1.54292 8.22437
Spine1  8.95417 0.391346 -3.59979
HEad  -27.012 5.83526 -5.31281
LeftShoulder1  11.3763 -16.9501 -48.5544
LeftArm  8.52815 -4.70298 -31.997
LeftForeArm  28.5383 -66.6996 -23.9869
LeftHand  -0.244104 0.0205437 5.32207
RightShoulder  7.52778 13.8488 37.3441
RightArm  5.22971 -7.08507 40.0478
RightForeArm  -3.69623 71.3256 38.54
RightHand  -13.7289 26.0564 -47.8898
LeftUpLeg  -6.17947 7.58398 6.89761
LeftLeg  1.34261 22.2336 -4.4922
LeftFoot  4.81327 0.450353 -3.38053
LeftToes  -2.09216e-011 1.96776e-011 -5.83545e-012
